<svg xmlns="http://www.w3.org/2000/svg" xmlns:svg="http://www.w3.org/2000/svg" id="Layer_1" width="100%" height="100%" x="0" y="0" enable-background="new 0 0 1280 800" version="1.1" viewBox="0 0 530 260" xml:space="preserve"><metadata id="metadata125"/><path id="path3" fill="#f8faf6" d="M 527,260 H 3 c -1.7,0 -3,-1.3 -3,-3 V 3 C 0,1.4 1.3,0 3,0 h 524 c 1.7,0 3,1.4 3,3 v 254 c 0,1.6 -1.3,3 -3,3 z"/><g id="g5" transform="translate(-443.4,-279.5)"><path id="path7" fill="#454746" d="m 528.2,335.1 c -0.5,0.2 -1.5,0.5 -2.8,0.5 -3.4,0 -5.5,-2.1 -5.5,-5.4 0,-3.6 2.5,-5.7 5.8,-5.7 1.3,0 2.2,0.3 2.6,0.5 l -0.4,1.6 c -0.5,-0.2 -1.2,-0.4 -2.1,-0.4 -2.2,0 -3.8,1.4 -3.8,4 0,2.4 1.4,3.9 3.8,3.9 0.8,0 1.6,-0.2 2.1,-0.4 l 0.3,1.4 z"/><path id="path9" fill="#454746" d="m 537,331.5 c 0,2.9 -2,4.1 -4,4.1 -2.2,0 -3.9,-1.5 -3.9,-4 0,-2.6 1.7,-4.1 4,-4.1 2.3,0 3.9,1.6 3.9,4 z m -5.9,0.1 c 0,1.5 0.7,2.6 1.9,2.6 1.1,0 1.9,-1.1 1.9,-2.7 0,-1.2 -0.5,-2.6 -1.9,-2.6 -1.3,0 -1.9,1.4 -1.9,2.7 z"/><path id="path11" fill="#454746" d="m 538.6,330 c 0,-0.9 0,-1.6 -0.1,-2.3 h 1.7 l 0.1,1.2 h 0 c 0.4,-0.6 1.1,-1.3 2.4,-1.3 1,0 1.8,0.6 2.2,1.4 h 0 c 0.3,-0.4 0.6,-0.8 1,-1 0.4,-0.3 0.9,-0.5 1.6,-0.5 1.3,0 2.6,0.9 2.6,3.4 v 4.6 h -1.9 v -4.3 c 0,-1.3 -0.4,-2.1 -1.4,-2.1 -0.7,0 -1.2,0.5 -1.4,1 0,0.2 -0.1,0.4 -0.1,0.7 v 4.7 h -1.9 V 331 c 0,-1.1 -0.4,-1.9 -1.3,-1.9 -0.7,0 -1.2,0.6 -1.4,1.1 -0.1,0.2 -0.1,0.4 -0.1,0.6 v 4.6 h -1.9 V 330 z"/><path id="path13" fill="#454746" d="m 552.2,330 c 0,-0.9 0,-1.6 -0.1,-2.3 h 1.7 l 0.1,1.2 h 0 c 0.4,-0.6 1.1,-1.3 2.4,-1.3 1,0 1.8,0.6 2.2,1.4 h 0 c 0.3,-0.4 0.6,-0.8 1,-1 0.4,-0.3 0.9,-0.5 1.6,-0.5 1.3,0 2.6,0.9 2.6,3.4 v 4.6 h -1.9 v -4.3 c 0,-1.3 -0.4,-2.1 -1.4,-2.1 -0.7,0 -1.2,0.5 -1.4,1 0,0.2 -0.1,0.4 -0.1,0.7 v 4.7 H 557 V 331 c 0,-1.1 -0.4,-1.9 -1.3,-1.9 -0.7,0 -1.2,0.6 -1.4,1.1 -0.1,0.2 -0.1,0.4 -0.1,0.6 v 4.6 h -1.9 V 330 z"/><path id="path15" fill="#454746" d="m 567.8,325.5 c 0,0.6 -0.4,1.1 -1.1,1.1 -0.7,0 -1.1,-0.5 -1.1,-1.1 0,-0.6 0.4,-1.1 1.1,-1.1 0.7,0 1.1,0.5 1.1,1.1 z m -2.1,10 v -7.8 h 2 v 7.8 h -2 z"/><path id="path17" fill="#454746" d="m 572.1,325.4 v 2.2 h 1.9 v 1.5 h -1.9 v 3.4 c 0,0.9 0.3,1.4 1,1.4 0.3,0 0.6,0 0.8,-0.1 l 0,1.5 c -0.3,0.1 -0.8,0.2 -1.4,0.2 -0.7,0 -1.3,-0.2 -1.7,-0.6 -0.4,-0.4 -0.6,-1.2 -0.6,-2.2 V 329 H 569 v -1.5 h 1.1 v -1.8 l 2,-0.3 z"/><path id="path19" fill="#454746" d="m 578.8,330.3 c 0,-1 0,-1.9 -0.1,-2.6 h 1.7 l 0.1,1.2 h 0 c 0.6,-0.9 1.5,-1.4 2.7,-1.4 1.8,0 3.3,1.5 3.3,4 0,2.8 -1.8,4.2 -3.6,4.2 -1,0 -1.8,-0.4 -2.2,-1 h 0 v 4 h -2 v -8.4 z m 1.9,1.9 c 0,0.2 0,0.4 0.1,0.5 0.2,0.8 0.9,1.4 1.7,1.4 1.2,0 2,-1 2,-2.6 0,-1.4 -0.7,-2.5 -1.9,-2.5 -0.8,0 -1.6,0.6 -1.8,1.5 0,0.2 -0.1,0.3 -0.1,0.5 v 1.2 z"/><path id="path21" fill="#454746" d="m 595.5,331.5 c 0,2.9 -2,4.1 -4,4.1 -2.2,0 -3.9,-1.5 -3.9,-4 0,-2.6 1.7,-4.1 4,-4.1 2.4,0 3.9,1.6 3.9,4 z m -5.8,0.1 c 0,1.5 0.7,2.6 1.9,2.6 1.1,0 1.9,-1.1 1.9,-2.7 0,-1.2 -0.5,-2.6 -1.9,-2.6 -1.4,0 -1.9,1.4 -1.9,2.7 z"/><path id="path23" fill="#454746" d="m 599.2,325.5 c 0,0.6 -0.4,1.1 -1.1,1.1 -0.7,0 -1.1,-0.5 -1.1,-1.1 0,-0.6 0.4,-1.1 1.1,-1.1 0.7,0 1.1,0.5 1.1,1.1 z m -2.1,10 v -7.8 h 2 v 7.8 h -2 z"/><path id="path25" fill="#454746" d="m 601.2,330 c 0,-0.9 0,-1.6 -0.1,-2.3 h 1.7 l 0.1,1.2 h 0 c 0.3,-0.6 1.2,-1.3 2.5,-1.3 1.4,0 2.8,0.9 2.8,3.3 v 4.6 h -2 v -4.4 c 0,-1.1 -0.4,-2 -1.5,-2 -0.8,0 -1.3,0.6 -1.5,1.2 -0.1,0.2 -0.1,0.4 -0.1,0.6 v 4.6 h -2 V 330 z"/><path id="path27" fill="#454746" d="m 612.6,325.4 v 2.2 h 1.9 v 1.5 h -1.9 v 3.4 c 0,0.9 0.3,1.4 1,1.4 0.3,0 0.6,0 0.8,-0.1 l 0,1.5 c -0.3,0.1 -0.8,0.2 -1.4,0.2 -0.7,0 -1.3,-0.2 -1.7,-0.6 -0.4,-0.4 -0.6,-1.2 -0.6,-2.2 V 329 h -1.1 v -1.5 h 1.1 v -1.8 l 1.9,-0.3 z"/></g><g id="g29" transform="translate(-443.4,-279.5)"><path id="path31" fill="#454746" d="m 609.8,495.7 c 0.6,0.4 1.6,0.7 2.6,0.7 1.3,0 2,-0.6 2,-1.5 0,-0.8 -0.5,-1.3 -1.9,-1.8 -1.8,-0.6 -2.9,-1.6 -2.9,-3.1 0,-1.8 1.5,-3.1 3.8,-3.1 1.2,0 2,0.3 2.6,0.5 l -0.5,1.6 c -0.4,-0.2 -1.1,-0.5 -2.1,-0.5 -1.2,0 -1.8,0.7 -1.8,1.3 0,0.8 0.6,1.2 2.1,1.8 1.9,0.7 2.8,1.6 2.8,3.2 0,1.7 -1.3,3.2 -4.1,3.2 -1.1,0 -2.3,-0.3 -2.9,-0.7 l 0.3,-1.6 z"/><path id="path33" fill="#454746" d="m 619.6,494.5 c 0,1.4 1.2,2 2.4,2 0.9,0 1.6,-0.1 2.2,-0.4 l 0.3,1.4 c -0.7,0.3 -1.6,0.5 -2.7,0.5 -2.5,0 -4,-1.6 -4,-3.9 0,-2.2 1.3,-4.2 3.8,-4.2 2.5,0 3.4,2.1 3.4,3.8 0,0.4 0,0.7 -0.1,0.8 h -5.3 z m 3.4,-1.3 c 0,-0.7 -0.3,-1.9 -1.6,-1.9 -1.2,0 -1.7,1.1 -1.8,1.9 h 3.4 z"/><path id="path35" fill="#454746" d="m 630.8,497.9 -0.1,-0.9 h 0 c -0.5,0.6 -1.3,1 -2.3,1 -1.6,0 -2.4,-1.1 -2.4,-2.3 0,-2 1.7,-3 4.6,-2.9 v -0.1 c 0,-0.5 -0.2,-1.4 -1.6,-1.4 -0.8,0 -1.6,0.2 -2.1,0.6 l -0.4,-1.3 c 0.6,-0.4 1.6,-0.7 2.8,-0.7 2.5,0 3.2,1.6 3.2,3.3 v 2.8 c 0,0.7 0,1.4 0.1,1.9 h -1.8 z m -0.3,-3.8 c -1.4,0 -2.7,0.3 -2.7,1.5 0,0.8 0.5,1.1 1.1,1.1 0.8,0 1.4,-0.5 1.5,-1.1 0,-0.1 0.1,-0.3 0.1,-0.4 v -1.1 z"/><path id="path37" fill="#454746" d="m 634.5,492.6 c 0,-1.1 0,-1.8 -0.1,-2.5 h 1.7 l 0.1,1.5 h 0.1 c 0.4,-1.1 1.3,-1.7 2.1,-1.7 0.2,0 0.3,0 0.5,0 v 1.9 c -0.2,0 -0.3,-0.1 -0.6,-0.1 -0.9,0 -1.6,0.6 -1.8,1.5 0,0.2 -0.1,0.4 -0.1,0.6 v 4 h -2 v -5.2 z"/><path id="path39" fill="#454746" d="m 645.8,497.6 c -0.4,0.2 -1.2,0.4 -2.2,0.4 -2.4,0 -4,-1.6 -4,-4 0,-2.3 1.6,-4.2 4.3,-4.2 0.7,0 1.5,0.2 1.9,0.4 l -0.4,1.5 c -0.3,-0.1 -0.8,-0.3 -1.5,-0.3 -1.5,0 -2.4,1.1 -2.4,2.5 0,1.6 1,2.5 2.4,2.5 0.7,0 1.2,-0.1 1.6,-0.3 l 0.3,1.5 z"/><path id="path41" fill="#454746" d="m 647.3,486.5 h 2 v 4.6 h 0 c 0.2,-0.4 0.6,-0.7 1,-0.9 0.4,-0.2 0.8,-0.4 1.3,-0.4 1.3,0 2.7,0.9 2.7,3.4 v 4.6 h -2 v -4.4 c 0,-1.1 -0.4,-2 -1.5,-2 -0.8,0 -1.3,0.5 -1.5,1.1 -0.1,0.2 -0.1,0.4 -0.1,0.6 v 4.7 h -2 v -11.3 z"/><path id="path43" fill="#454746" d="m 660.8,497.9 -0.1,-0.9 h 0 c -0.5,0.6 -1.3,1 -2.3,1 -1.6,0 -2.4,-1.1 -2.4,-2.3 0,-2 1.7,-3 4.6,-2.9 v -0.1 c 0,-0.5 -0.2,-1.4 -1.6,-1.4 -0.8,0 -1.6,0.2 -2.1,0.6 l -0.4,-1.3 c 0.6,-0.4 1.6,-0.7 2.8,-0.7 2.5,0 3.2,1.6 3.2,3.3 v 2.8 c 0,0.7 0,1.4 0.1,1.9 h -1.8 z m -0.2,-3.8 c -1.4,0 -2.7,0.3 -2.7,1.5 0,0.8 0.5,1.1 1.1,1.1 0.8,0 1.4,-0.5 1.5,-1.1 0,-0.1 0.1,-0.3 0.1,-0.4 v -1.1 z"/><path id="path45" fill="#454746" d="m 664.5,497.9 c 0,-0.5 0.1,-1.4 0.1,-2.2 v -9.2 h 2 v 4.6 h 0 c 0.5,-0.8 1.3,-1.2 2.5,-1.2 1.9,0 3.3,1.6 3.2,4 0,2.8 -1.8,4.2 -3.5,4.2 -1,0 -1.9,-0.4 -2.5,-1.3 h 0 l -0.1,1.2 h -1.7 z m 2,-3.2 c 0,0.2 0,0.3 0,0.5 0.2,0.8 0.9,1.4 1.7,1.4 1.2,0 2,-1 2,-2.6 0,-1.4 -0.7,-2.5 -2,-2.5 -0.8,0 -1.5,0.6 -1.7,1.4 0,0.1 -0.1,0.3 -0.1,0.5 v 1.3 z"/><path id="path47" fill="#454746" d="m 673.9,486.5 h 2 v 11.4 h -2 v -11.4 z"/><path id="path49" fill="#454746" d="m 679.4,494.5 c 0,1.4 1.2,2 2.4,2 0.9,0 1.6,-0.1 2.2,-0.4 l 0.3,1.4 c -0.7,0.3 -1.6,0.5 -2.7,0.5 -2.5,0 -4,-1.6 -4,-3.9 0,-2.2 1.3,-4.2 3.8,-4.2 2.5,0 3.4,2.1 3.4,3.8 0,0.4 0,0.7 -0.1,0.8 h -5.3 z m 3.4,-1.3 c 0,-0.7 -0.3,-1.9 -1.6,-1.9 -1.2,0 -1.7,1.1 -1.8,1.9 h 3.4 z"/></g><g id="g51" transform="translate(-443.4,-279.5)"><g id="g53"><path id="path55" fill="none" stroke="#454746" stroke-linecap="round" stroke-miterlimit="10" stroke-width="1.6" d="m 567.1,347.2 c -14.3,18 -36.7,-0.3 -39.6,33.6"/><g id="g57"><path id="path59" fill="#454746" d="m 527.3,388.5 c -1.2,-3.7 -3.3,-8.3 -5.6,-11.2 l 6,2.5 6.2,-1.9 c -2.6,2.6 -5.1,7 -6.6,10.6 z"/></g></g></g><path id="path61" fill="none" stroke="#454746" stroke-linecap="round" stroke-miterlimit="10" stroke-width="1.6" d="m 365.1,180.6 v 12 c 0,1.7 -1.3,3 -3,3 h -317 c -1.7,0 -3,-1.3 -3,-3 v -12"/><path id="path63" fill="#75b640" d="m 83.6,163 c 10.2,0 19.7,-1.8 24.9,-4.7 2,-1.2 3.9,-2.5 5.1,-3.6 v -11 c -1.3,0.9 -2.5,1.6 -3.2,2 -5.8,3.2 -15.8,5.2 -26.8,5.2 -11,0 -21.1,-1.9 -26.8,-5.2 -0.7,-0.4 -1.9,-1.1 -3.2,-2 v 11 c 1.2,1.1 3.1,2.5 5.2,3.6 5,2.9 14.5,4.7 24.8,4.7 z"/><path id="path65" fill="#75b640" d="m 113.6,168 v -8.2 c -1.3,0.9 -2.5,1.6 -3.2,2 -5.8,3.2 -15.8,5.2 -26.8,5.2 -11,0 -21.1,-1.9 -26.8,-5.2 -0.7,-0.4 -1.9,-1.1 -3.2,-2 v 8.2 c 0,5.5 13.4,10 30,10 16.5,0 30,-4.5 30,-10 z"/><path id="path67" fill="#75b640" d="m 83.6,146.9 c 10.2,0 19.7,-1.8 24.8,-4.7 2,-1.2 3.9,-2.5 5.2,-3.6 v -4.7 c 0,-5.5 -13.4,-10 -30,-10 -16.6,0 -30,4.5 -30,10 v 4.7 c 1.2,1.1 3.1,2.5 5.1,3.6 5.1,2.9 14.6,4.7 24.9,4.7 z"/><path id="path69" fill="#75b640" d="m 193.6,168 v -8.2 c -1.3,0.9 -2.5,1.6 -3.2,2 -5.8,3.2 -15.8,5.2 -26.8,5.2 -11,0 -21.1,-1.9 -26.8,-5.2 -0.7,-0.4 -1.9,-1.1 -3.2,-2 v 8.2 c 0,5.5 13.4,10 30,10 16.5,0 30,-4.5 30,-10 z"/><path id="path71" fill="#75b640" d="m 163.6,163 c 10.2,0 19.7,-1.8 24.9,-4.7 2,-1.2 3.9,-2.5 5.1,-3.6 v -11 c -1.3,0.9 -2.5,1.6 -3.2,2 -5.8,3.2 -15.8,5.2 -26.8,5.2 -11,0 -21.1,-1.9 -26.8,-5.2 -0.7,-0.4 -1.9,-1.1 -3.2,-2 v 11 c 1.2,1.1 3.1,2.5 5.2,3.6 5,2.9 14.5,4.7 24.8,4.7 z"/><path id="path73" fill="#75b640" d="m 163.6,146.9 c 10.2,0 19.7,-1.8 24.8,-4.7 2,-1.2 3.9,-2.5 5.2,-3.6 v -4.7 c 0,-5.5 -13.4,-10 -30,-10 -16.6,0 -30,4.5 -30,10 v 4.7 c 1.2,1.1 3.1,2.5 5.1,3.6 5.1,2.9 14.6,4.7 24.9,4.7 z"/><path id="path75" fill="#d3d3d3" d="m 243.6,146.9 c 10.2,0 19.7,-1.8 24.8,-4.7 2,-1.2 3.9,-2.5 5.2,-3.6 v -4.7 c 0,-5.5 -13.4,-10 -30,-10 -16.6,0 -30,4.5 -30,10 v 4.7 c 1.2,1.1 3.1,2.5 5.1,3.6 5.1,2.9 14.6,4.7 24.9,4.7 z"/><path id="path77" fill="#d3d3d3" d="m 243.6,163 c 10.2,0 19.7,-1.8 24.9,-4.7 2,-1.2 3.9,-2.5 5.1,-3.6 v -11 c -1.3,0.9 -2.5,1.6 -3.2,2 -5.8,3.2 -15.8,5.2 -26.8,5.2 -11,0 -21.1,-1.9 -26.8,-5.2 -0.7,-0.4 -1.9,-1.1 -3.2,-2 v 11 c 1.2,1.1 3.1,2.5 5.2,3.6 5,2.9 14.5,4.7 24.8,4.7 z"/><path id="path79" fill="#d3d3d3" d="m 273.6,168 v -8.2 c -1.3,0.9 -2.5,1.6 -3.2,2 -5.8,3.2 -15.8,5.2 -26.8,5.2 -11,0 -21.1,-1.9 -26.8,-5.2 -0.7,-0.4 -1.9,-1.1 -3.2,-2 v 8.2 c 0,5.5 13.4,10 30,10 16.5,0 30,-4.5 30,-10 z"/><g id="g81" transform="translate(-443.4,-279.5)"><path id="path83" fill="#d3d3d3" d="m 797,447.5 v -8.2 c -1.3,0.9 -2.5,1.6 -3.2,2 -5.8,3.2 -15.8,5.2 -26.8,5.2 -11,0 -21.1,-1.9 -26.8,-5.2 -0.7,-0.4 -1.9,-1.1 -3.2,-2 v 8.2 c 0,5.5 13.4,10 30,10 16.5,0 30,-4.5 30,-10 z"/><path id="path85" fill="#d3d3d3" d="m 767,442.5 c 10.2,0 19.7,-1.8 24.9,-4.7 2,-1.2 3.9,-2.5 5.1,-3.6 v -11 c -1.3,0.9 -2.5,1.6 -3.2,2 -5.8,3.2 -15.8,5.2 -26.8,5.2 -11,0 -21.1,-1.9 -26.8,-5.2 -0.7,-0.4 -1.9,-1.1 -3.2,-2 v 11 c 1.2,1.1 3.1,2.5 5.2,3.6 5,2.9 14.5,4.7 24.8,4.7 z"/><path id="path87" fill="#d3d3d3" d="m 767,426.4 c 10.2,0 19.7,-1.8 24.8,-4.7 2,-1.2 3.9,-2.5 5.2,-3.6 v -4.7 c 0,-5.5 -13.4,-10 -30,-10 -16.6,0 -30,4.5 -30,10 v 4.7 c 1.2,1.1 3.1,2.5 5.1,3.6 5.1,2.9 14.6,4.7 24.9,4.7 z"/></g><g id="g89" transform="translate(-443.4,-279.5)"><path id="path91" fill="#d3d3d3" d="m 929.2,443.4 v -17.5 c -1.8,1.3 -3.5,2.3 -4.5,2.8 -8.1,4.6 -22.2,7.3 -37.8,7.3 -15.6,0 -29.7,-2.7 -37.8,-7.3 -1,-0.5 -2.7,-1.5 -4.5,-2.8 v 17.5 c 0,7.8 18.9,14.1 42.2,14.1 23.5,0 42.4,-6.3 42.4,-14.1 z"/><path id="path93" fill="#d3d3d3" d="m 887,432.4 c 14.4,0 27.8,-2.5 35,-6.6 2.9,-1.6 5.6,-3.6 7.3,-5.1 v -21.4 c -1.8,1.3 -3.5,2.3 -4.5,2.8 -8.1,4.6 -22.2,7.3 -37.8,7.3 -15.6,0 -29.7,-2.7 -37.8,-7.3 -1,-0.5 -2.7,-1.5 -4.5,-2.8 v 21.4 c 1.7,1.5 4.4,3.5 7.3,5.1 7.2,4.1 20.6,6.6 35,6.6 z"/><path id="path95" fill="#d3d3d3" d="m 887,405.8 c 14.4,0 27.8,-2.5 35,-6.6 2.9,-1.6 5.6,-3.6 7.3,-5.1 v -12.5 c 0,-7.8 -18.9,-14.1 -42.2,-14.1 -23.3,0 -42.2,6.3 -42.2,14.1 v 12.5 c 1.7,1.5 4.4,3.5 7.3,5.1 7,4.1 20.4,6.6 34.8,6.6 z"/></g><g id="g97" transform="translate(-443.4,-279.5)"><g id="g99"><path id="path101" fill="none" stroke="#454746" stroke-linecap="round" stroke-miterlimit="10" stroke-width="1.6" d="m 567.1,347.2 c 14.3,18 36.7,-0.3 39.6,33.6"/><g id="g103"><path id="path105" fill="#454746" d="m 607,388.5 c -1.5,-3.6 -4,-8 -6.6,-10.7 l 6.2,1.9 6,-2.5 c -2.3,3 -4.4,7.6 -5.6,11.3 z"/></g></g></g><g id="g107" transform="translate(-443.4,-279.5)"><g id="g109"><path id="path111" fill="none" stroke="#454746" stroke-linecap="round" stroke-miterlimit="10" stroke-width="1.6" d="M 527,414.9 C 640,399.8 878.5,268 886.8,347"/><g id="g113"><path id="path115" fill="#454746" d="m 887,354.7 c -1.4,-3.6 -3.9,-8.1 -6.4,-10.8 l 6.1,2 6,-2.4 c -2.3,3 -4.5,7.6 -5.7,11.2 z"/></g></g></g><path id="path117" fill="none" stroke="#454746" stroke-linecap="round" stroke-miterlimit="10" stroke-width="1.6" d="m 163.6,135.4 c 12.5,-18.5 72.1,-43.8 145,-71.2"/><path id="path119" fill="none" stroke="#454746" stroke-linecap="round" stroke-miterlimit="10" stroke-width="1.6" d="m 243.6,135.4 c 0,0 -7.9,-45.6 65,-71.2"/></svg>